<svg xmlns="http://www.w3.org/2000/svg" viewBox="0 0 800 800"><defs><style>.cls-1{fill:none;}.cls-2{fill:#dadada;}.cls-3{fill:#f0f0f0;}.cls-4{fill:#e3e3e3;}.cls-5{fill:#e7000e;}.cls-6{fill:#b3b3b3;}.cls-7{fill:#707070;}</style></defs><g id="Calque_2" data-name="Calque 2"><g id="Calque_1-2" data-name="Calque 1"><rect class="cls-1" x="319.76" y="285.57" width="79.7" height="79.7"/><rect class="cls-2" x="399.47" y="205.73" width="79.7" height="79.7"/><rect class="cls-3" x="399.47" y="126.03" width="79.7" height="79.7"/><rect class="cls-1" x="319.76" y="205.73" width="79.7" height="79.7"/><rect class="cls-2" x="240.06" y="205.73" width="79.7" height="79.7"/><rect class="cls-3" x="479.17" y="205.73" width="79.7" height="79.7"/><rect class="cls-4" x="479.17" y="445.12" width="79.7" height="79.7"/><rect class="cls-2" x="479.17" y="365.41" width="79.7" height="79.7"/><rect class="cls-1" x="319.76" y="365.41" width="79.7" height="79.7"/><rect class="cls-1" x="240.06" y="285.57" width="79.7" height="79.7"/><rect class="cls-2" x="160.36" y="285.57" width="79.7" height="79.7"/><rect class="cls-5" x="240.06" y="365.41" width="79.7" height="79.7"/><rect class="cls-4" x="240.06" y="445.12" width="79.7" height="79.7"/><rect class="cls-3" x="160.36" y="365.41" width="79.7" height="79.7"/><rect class="cls-6" x="399.47" y="365.41" width="79.7" height="79.7"/><rect class="cls-6" x="80.65" y="365.41" width="79.7" height="79.7"/><rect class="cls-6" x="479.17" y="285.57" width="79.7" height="79.7"/><rect class="cls-4" x="558.87" y="285.57" width="79.7" height="79.7"/><rect class="cls-3" x="558.87" y="365.41" width="79.7" height="79.7"/><rect class="cls-3" x="638.58" y="285.57" width="79.7" height="79.7"/><rect class="cls-1" x="399.47" y="285.57" width="79.7" height="79.7"/><path class="cls-7" d="M79,572.87h44.1q13.07,0,21.12,7.42t8,20.83a30.31,30.31,0,0,1-7.18,20.09q-7.17,8.55-22,8.55H92.35v41.66H79Zm51.78,13.56q-4.4-2.08-12.06-2.08H92.35v34.14h26.37q8.93,0,14.49-3.82t5.56-13.49Q138.77,590.32,130.78,586.43Z"/><path class="cls-7" d="M167.75,599.91H180v71.51H167.75Z"/><path class="cls-7" d="M191.43,599.57h15.63l16.51,25.3,16.7-25.3,14.69.34-24.21,34.68L256,671.42H240.61l-17.85-27-17.31,27H190.16l25.29-36.83Z"/><path class="cls-7" d="M311.35,601.55a27.27,27.27,0,0,1,10.87,9.29,32.22,32.22,0,0,1,4.8,12.68q1.07,5,1.07,15.84H275.83q.33,11,5.12,17.59t14.85,6.62q9.38,0,15-6.26a21.5,21.5,0,0,0,4.44-8.43h11.87A24.85,24.85,0,0,1,324,657.7a31.65,31.65,0,0,1-5.91,7.95,27.85,27.85,0,0,1-13.52,7.25,41,41,0,0,1-9.78,1.07,30,30,0,0,1-22.6-9.76q-9.27-9.76-9.27-27.34,0-17.31,9.33-28.11T296.62,598A32.46,32.46,0,0,1,311.35,601.55Zm4.32,28.21q-.72-7.85-3.39-12.54-4.92-8.73-16.43-8.72a18.16,18.16,0,0,0-13.84,6q-5.58,6-5.92,15.26Z"/><path class="cls-7" d="M343.72,572.87h12.07v98.55H343.72Z"/><path class="cls-7" d="M379.84,599.57,399,658.07l20-58.5h13.21l-27,71.85H392.32l-26.5-71.85Z"/><path class="cls-7" d="M487,601.55a27.27,27.27,0,0,1,10.87,9.29,32.07,32.07,0,0,1,4.8,12.68q1.07,5,1.07,15.84H451.45q.35,11,5.13,17.59t14.84,6.62q9.39,0,15-6.26a21.37,21.37,0,0,0,4.44-8.43H502.7a24.85,24.85,0,0,1-3.12,8.82,31.39,31.39,0,0,1-5.9,7.95,27.9,27.9,0,0,1-13.52,7.25,41.11,41.11,0,0,1-9.79,1.07,30,30,0,0,1-22.6-9.76q-9.27-9.76-9.26-27.34,0-17.31,9.33-28.11t24.4-10.8A32.4,32.4,0,0,1,487,601.55Zm4.33,28.21q-.74-7.85-3.39-12.54-4.94-8.73-16.44-8.72a18.15,18.15,0,0,0-13.83,6q-5.59,6-5.92,15.26Z"/><path class="cls-7" d="M521.42,579.52h12.21v20.05H545.1v9.87H533.63v46.89q0,3.75,2.55,5a10.86,10.86,0,0,0,4.7.74c.58,0,1.2,0,1.87-.05s1.46-.1,2.35-.22v9.59a26.35,26.35,0,0,1-4.33.87,40.65,40.65,0,0,1-4.86.27q-8.45,0-11.47-4.33t-3-11.23V609.44H511.7v-9.87h9.72Z"/><path class="cls-7" d="M557.18,599.91h12.27v71.51H557.18Z"/><path class="cls-7" d="M635.16,603.4q7.62,5.9,9.16,20.32H632.58a21.72,21.72,0,0,0-4.9-11q-3.82-4.4-12.27-4.39-11.55,0-16.5,11.25-3.23,7.31-3.22,18t4.56,18.15q4.56,7.38,14.35,7.37,7.51,0,11.91-4.57T632.58,646h11.74q-2,14.28-10.06,20.89t-20.6,6.61q-14.08,0-22.47-10.3t-8.38-25.72q0-18.91,9.18-29.45a29.72,29.72,0,0,1,23.42-10.54Q627.55,597.49,635.16,603.4Z"/><path class="cls-7" d="M694.9,627.94c2.78-.36,4.63-1.52,5.57-3.48a10.68,10.68,0,0,0,.8-4.65q0-6.19-4.38-9T684.34,608q-9.45,0-13.39,5.12c-1.48,1.89-2.43,4.7-2.88,8.43H656.8q.33-13.32,8.61-18.54a35.28,35.28,0,0,1,19.19-5.21q12.67,0,20.58,4.83t7.84,15v41.39a5.26,5.26,0,0,0,.77,3c.51.76,1.6,1.14,3.25,1.14.54,0,1.14,0,1.81-.1s1.39-.17,2.15-.3v8.92a34,34,0,0,1-4.29,1,30.51,30.51,0,0,1-4,.2q-6.24,0-9.06-4.42a17.31,17.31,0,0,1-2.08-6.64A30.73,30.73,0,0,1,691,670.28a32.83,32.83,0,0,1-15.23,3.56q-10,0-16.34-6.07A20.14,20.14,0,0,1,653,652.6q0-10,6.24-15.48t16.37-6.77Zm-25.42,32.62a14.19,14.19,0,0,0,9,3,27.65,27.65,0,0,0,12.35-2.94q10.07-4.89,10.06-16v-9.71a20.66,20.66,0,0,1-5.69,2.35,48.18,48.18,0,0,1-6.83,1.35l-7.3.93q-6.55.87-9.86,2.75-5.61,3.15-5.61,10A9.91,9.91,0,0,0,669.48,660.56Z"/><rect class="cls-1" width="800" height="800"/></g></g></svg>